<svg width="225px" height="39px" viewBox="0 0 225 39" version="1.1" xmlns="http://www.w3.org/2000/svg" xmlns:xlink="http://www.w3.org/1999/xlink">
    <g id="Page-1" stroke="none" stroke-width="1" fill="none" fill-rule="evenodd">
        <g id="01_LOGO_01" transform="translate(0.319154, 0.922879)" fill="#fff" fill-rule="nonzero">
            <path d="M31.1508462,0.967121444 C31.5783076,0.947514671 31.9946539,1.10664753 32.3000645,1.40636732 C32.6054752,1.70608711 32.7724102,2.11936695 32.7608462,2.54712144 L32.7608462,7.85712144 C32.7582481,8.27967679 32.5864963,8.68358367 32.2839643,8.97859927 C31.9814324,9.27361487 31.5733332,9.43515279 31.1508462,9.42712144 L9.75084621,9.42712144 C9.58649724,9.40757325 9.42226022,9.46447258 9.30522878,9.58150402 C9.18819734,9.69853546 9.13129801,9.86277248 9.15084621,10.0271214 L9.15084621,16.0271214 C9.13055884,16.1907942 9.18762131,16.3545833 9.30521695,16.470219 C9.42281258,16.5858547 9.5875375,16.6401566 9.75084621,16.6171214 L25.5408462,16.6171214 C26.4221956,16.6389536 27.1220684,17.3655731 27.1108462,18.2471214 L27.1108462,22.6471214 C27.1188775,23.0696084 26.9573396,23.4777076 26.662324,23.7802396 C26.3673084,24.0827715 25.9634015,24.2545233 25.5408462,24.2571214 L9.75084621,24.2571214 C9.36084621,24.2571214 9.15084621,24.4371214 9.15084621,24.8271214 L9.15084621,35.1571214 C9.16776735,35.5793718 9.00813979,35.9896066 8.71027417,36.2893695 C8.41240854,36.5891323 8.0031955,36.7513613 7.58084621,36.7371214 L1.58084621,36.7371214 C1.15764709,36.751193 0.747540097,36.5892522 0.448127754,36.2898399 C0.148715411,35.9904276 -0.0132253516,35.5803206 0.000846206132,35.1571214 L0.000846206132,2.54712144 C-0.0132253516,2.12392233 0.148715411,1.71381533 0.448127754,1.41440299 C0.747540097,1.11499065 1.15764709,0.953049886 1.58084621,0.967121444 L31.1508462,0.967121444 Z" id="Path"/>
            <path d="M50.0608462,36.7371214 C49.6384969,36.7513613 49.2292839,36.5891323 48.9314182,36.2893695 C48.6335526,35.9896066 48.4739251,35.5793718 48.4908462,35.1571214 L48.4908462,2.54712144 C48.4739251,2.12487107 48.6335526,1.71463626 48.9314182,1.4148734 C49.2292839,1.11511055 49.6384969,0.95288157 50.0608462,0.967121444 L56.0608462,0.967121444 C56.4924802,0.935069219 56.9171168,1.08977948 57.22697,1.39198191 C57.5368231,1.69418433 57.7020993,2.11482112 57.6808462,2.54712144 L57.6808462,35.1571214 C57.6949178,35.5803206 57.532977,35.9904276 57.2335647,36.2898399 C56.9341523,36.5892522 56.5240453,36.751193 56.1008462,36.7371214 L50.0608462,36.7371214 Z" id="Path"/>
            <path d="M74.6808462,19.7271214 L74.6808462,17.9171214 C74.6808462,5.98378811 81.6808462,0.0137881103 95.6808462,0.00712144365 C99.1526791,-0.0635127844 102.615212,0.391639984 105.950846,1.35712144 C108.89949,2.30357664 111.622387,3.84541682 113.950846,5.88712144 C114.336604,6.08889685 114.600298,6.46549444 114.657965,6.89699964 C114.715631,7.32850484 114.560082,7.76113035 114.240846,8.05712144 L110.510846,12.6671214 C110.269473,13.0593608 109.857173,13.3147136 109.398475,13.3560555 C108.939778,13.3973974 108.488464,13.2198809 108.180846,12.8771214 C105.000846,9.94712144 100.830846,8.47712144 95.6308462,8.47712144 C87.7375129,8.47712144 83.7941795,11.6071214 83.8008462,17.8671214 L83.8008462,19.8671214 C83.8008462,23.2271214 84.9408462,25.6371214 87.2208462,27.0571214 C89.5008462,28.4771214 92.7308462,29.2371214 96.9508462,29.2371214 C100.050638,29.3411457 103.142009,28.8558921 106.060846,27.8071214 C106.34859,27.7268771 106.54845,27.4658349 106.550846,27.1671214 L106.550846,24.4671214 C106.567092,24.3044059 106.50873,24.1430931 106.392133,24.0284395 C106.275537,23.9137859 106.113266,23.858143 105.950846,23.8771214 L92.7808462,23.8771214 C92.3601634,23.8825503 91.9551222,23.7178304 91.6576297,23.4203379 C91.3601373,23.1228454 91.1954174,22.7178043 91.2008462,22.2971214 L91.2008462,18.0771214 C91.1951255,17.1939286 91.8979036,16.4689106 92.7808462,16.4471214 L114.260846,16.4471214 C114.691359,16.4382084 115.106177,16.6087876 115.405882,16.9179766 C115.705586,17.2271656 115.863163,17.647095 115.840846,18.0771214 L115.840846,31.0771214 C115.974583,32.2085852 115.414328,33.309368 114.420846,33.8671214 C110.170846,36.4371214 103.960846,37.6971214 95.7608462,37.6971214 C81.7075129,37.6904548 74.6808462,31.7004548 74.6808462,19.7271214 Z" id="Path"/>
            <path d="M131.080812,18.8271214 L131.080812,2.54712144 C131.078072,2.12374977 131.246406,1.71720313 131.547659,1.41971647 C131.848911,1.12222981 132.257543,0.959022276 132.680846,0.967121444 L138.680846,0.967121444 C139.108308,0.947514671 139.524654,1.10664753 139.830065,1.40636732 C140.135475,1.70608711 140.30241,2.11936695 140.290846,2.54712144 L140.290846,18.8771214 C140.290846,22.6571214 141.170846,25.3171214 142.900846,26.8771214 C144.930652,28.5308258 147.507274,29.3623395 150.120846,29.2071214 C156.880846,29.2071214 160.240846,25.7571214 160.260846,18.8771214 L160.260846,2.54712144 C160.240646,2.12220824 160.400613,1.70848514 160.701412,1.4076868 C161.00221,1.10688846 161.415933,0.946921356 161.840846,0.967121444 L167.840846,0.967121444 C168.270873,0.94480441 168.690802,1.10238126 168.999991,1.40208595 C169.30918,1.70179065 169.479759,2.11660859 169.471179,2.54712144 L169.471179,18.8271214 C169.471179,31.4071214 163.017513,37.6937881 150.110846,37.6871267 C137.42418,37.6871267 131.080812,31.4004548 131.080812,18.8271214 Z" id="Path"/>
            <path d="M188.570846,36.7371214 C188.148497,36.7513613 187.739284,36.5891323 187.441418,36.2893695 C187.143553,35.9896066 186.983925,35.5793718 187.000846,35.1571214 L187.000846,2.54712144 C186.983925,2.12487107 187.143553,1.71463626 187.441418,1.4148734 C187.739284,1.11511055 188.148497,0.95288157 188.570846,0.967121444 L209.680846,0.967121444 C214.410846,0.967121444 217.930846,1.87712144 220.290846,3.71712144 C222.650846,5.55712144 223.780846,8.71712144 223.780846,13.1571214 C223.780846,19.0571214 221.380846,22.8671214 216.540846,24.5971214 C216.070846,24.7771214 215.990846,25.0371214 216.300846,25.3971214 L222.560846,33.3971214 C223.148316,33.9919017 223.303869,34.8893226 222.950846,35.6471214 C222.591626,36.4111714 221.791307,36.8673532 220.950846,36.7871214 L216.160846,36.7871214 C215.089973,36.9459589 214.028702,36.4449127 213.470846,35.5171214 L206.300846,26.1771214 C206.150069,25.9601539 205.893823,25.8415921 205.630846,25.8671214 L196.440846,25.8671214 C196.050846,25.8671214 195.840846,26.0671214 195.870846,26.4571214 L195.870846,35.2071214 C195.874327,35.641318 195.697831,36.0575675 195.383313,36.3569284 C195.068795,36.6562893 194.644342,36.8120264 194.210846,36.7871214 L188.570846,36.7371214 Z M208.990846,17.7371214 C212.750846,17.7371214 214.610846,16.2071214 214.610846,13.1271214 C214.610846,10.0471214 212.800846,9.19712144 208.990846,9.19712144 L196.520846,9.19712144 C196.130846,9.19712144 195.920846,9.39712144 195.950846,9.78712144 L195.950846,17.1371214 C195.920408,17.2982439 195.969297,17.4641745 196.082233,17.5830543 C196.195169,17.7019341 196.358376,17.7592621 196.520846,17.7371214 L208.990846,17.7371214 Z" id="Shape"/>
        </g>
    </g>
</svg>